<?xml version="1.0" encoding="utf-8"?>
<!-- Generator: Adobe Illustrator 25.0.0, SVG Export Plug-In . SVG Version: 6.00 Build 0)  -->
<svg version="1.1" id="Capa_1" xmlns="http://www.w3.org/2000/svg" xmlns:xlink="http://www.w3.org/1999/xlink" x="0px" y="0px"
	 viewBox="0 0 141.73 70.87" style="enable-background:new 0 0 141.73 70.87;" xml:space="preserve">
<style type="text/css">
	.st0{clip-path:url(#SVGID_2_);fill-rule:evenodd;clip-rule:evenodd;fill:#FFFFFF;}
	.st1{clip-path:url(#SVGID_2_);fill-rule:evenodd;clip-rule:evenodd;fill:#FF0000;}
	.st2{clip-path:url(#SVGID_2_);fill:#FF0000;}
	.st3{clip-path:url(#SVGID_2_);fill:#FFFFFF;}
</style>
<g>
	<defs>
		<rect id="SVGID_1_" x="-0.17" y="0.09" width="141.73" height="70.87"/>
	</defs>
	<clipPath id="SVGID_2_">
		<use xlink:href="#SVGID_1_"  style="overflow:visible;"/>
	</clipPath>
	<path class="st0" d="M86.14,48.42c-13.17-1.11-26.19-0.94-39.97,0.84c-1.88,0.24-3.51,0.59-5.32,0.91
		c-2.04,0.35-3.99-0.54-5.06-2.34c-0.45,0.42-1,0.75-1.64,0.92c-8.95,2.44-17.88,4.95-26.81,7.46l-5.83,1.64l8.93-20.44L2.37,24.49
		l15.28-5.98c0.01-1.53,0.01-3.07,0.02-4.6c0.01-1.98,0.25-3.99,1.73-5.45C20.48,7.4,21.84,7,23.27,6.64
		c10.81-2.68,21.98-4.38,33.09-5.21c4.65-0.35,9.6-0.62,14.28-0.51c4.68-0.12,9.63,0.16,14.28,0.51
		c11.11,0.83,22.27,2.53,33.09,5.21c1.43,0.36,2.79,0.75,3.88,1.82c1.48,1.46,1.73,3.47,1.73,5.45c0,1.52,0.01,3.04,0.02,4.56
		c0.03,0.01,0.06,0.02,0.1,0.04l15.28,5.98l-8.07,12.91l8.93,20.44l-5.83-1.64c-8.93-2.51-17.86-5.02-26.81-7.46
		c-0.11-0.03-0.22-0.06-0.32-0.1c-1.11,1.74-3.07,2.55-5.1,2.1C95.66,49.39,92.93,48.99,86.14,48.42"/>
	<path class="st1" d="M122.69,21.18l12.06,4.72l-7.04,11.26l7.11,16.28c0,0-15.56-4.39-26.84-7.47c-0.5-0.14-0.83-0.65-0.82-1.25
		l0.07-3.84c6.35,1.2,10.59,2.32,11.83,2.77c2.93,1.06,2.93-1.55,2.93-1.55s-0.01-1.35-0.02-3.45l2.83,0.69l-2.83-1.93
		c0-0.86-0.01-1.81-0.02-2.81l2.72,0.67l-2.72-1.85c-0.01-0.92-0.01-1.88-0.02-2.86l2.61,0.64l-2.61-1.78c-0.01-1-0.01-2.01-0.02-3
		l2.87,0.7l-2.88-1.96c-0.01-1.15-0.01-2.26-0.02-3.31c0-0.24,0.09-0.45,0.26-0.6C122.3,21.14,122.5,21.11,122.69,21.18
		 M20.53,13.92c-0.02,5.19-0.14,26.2-0.14,26.2s0,2.62,2.93,1.55c2.93-1.06,22.53-5.88,47.32-6.58c24.79,0.7,44.39,5.51,47.32,6.58
		c2.93,1.06,2.93-1.55,2.93-1.55s-0.13-21.01-0.14-26.2c-0.01-3.44-0.9-3.86-3.43-4.49C92.41,3.25,70.64,3.8,70.64,3.8
		S48.88,3.25,23.96,9.43C21.43,10.06,20.54,10.48,20.53,13.92z M18.69,21.18L6.63,25.9l7.04,11.26L6.57,53.45
		c0,0,15.56-4.39,26.83-7.47c0.5-0.14,0.83-0.65,0.82-1.25l-0.07-3.84c-6.35,1.2-10.59,2.32-11.83,2.77
		c-2.93,1.06-2.93-1.55-2.93-1.55s0.01-1.35,0.02-3.45l-2.83,0.69l2.83-1.93c0-0.86,0.01-1.81,0.02-2.81l-2.72,0.67l2.72-1.85
		c0.01-0.92,0.01-1.88,0.02-2.86l-2.61,0.64l2.61-1.78c0.01-1,0.01-2.01,0.02-3l-2.87,0.7l2.88-1.96c0.01-1.15,0.01-2.26,0.02-3.31
		c0-0.24-0.09-0.45-0.26-0.6C19.08,21.14,18.89,21.11,18.69,21.18z"/>
	<path class="st0" d="M76.63,24.91c0,0,0.21-2.12,2.2-4.62c1.98-2.48,3.48-1.98,2.05,0.46C79.27,23.28,78.03,24.36,76.63,24.91
		 M101.46,27.67c0,0,0.77-1.17,1.43-2.63c0.66-1.45,1.24-3.18,0.86-4.32c-0.28-0.82-0.64-0.5-1.26,0.09
		c-0.73,0.7-1.73,1.9-2.29,3.63C99.25,27.39,100.64,28.02,101.46,27.67z M97.32,26.67c0,0-0.64,0.89-0.91,1.94
		c-0.43,1.68,0.28,2.91,2.08,1.95c0.81-0.43,1.43-1.07,1.78-1.6C100.26,28.97,98.26,28.3,97.32,26.67z M93.6,22.21
		c-0.47-0.07-0.94-0.14-1.41-0.21c0.11-0.74,0.22-1.47,0.34-2.21c0,0,0.25-1.37-0.65-0.95c-0.91,0.41-3.02,2.61-4.24,6.55
		c-1.18,3.8,0.2,7.86,5.74,1.01c0.39-2.54,1.92-4.62,2.61-5.28c1.02-0.98,1.92-0.2,1.92-0.2c0.91-0.86,2.71-3.81,5.65-2.3
		c1.34,0.68,1.81,1.98,1.71,3.54c-0.1,1.57-0.79,3.42-1.77,5.21c0,0,2.19-0.68,4.31-3.73c1.06-1.52,2.46-4.28,3.61-6.64
		c1.14-2.35,2.03-4.32,2.03-4.32c0.71,0.42,1.41,0.85,2.11,1.27c0,0,1.32,0.8,0.27,2.54c-0.53,0.87-2.21,3.72-3.83,6.59
		c-1.63,2.89-3.21,5.79-3.53,6.66c-0.27,0.74-0.2,1.19,0.06,1.37c0.61,0.46,1.83-0.64,2.27-1.07c0.91-0.89,2.19-2.5,3.23-3.88
		c1.04-1.38,1.86-2.53,1.86-2.53c0.34,0.23,0.67,0.45,1.01,0.67c0,0-1.27,2.06-2.88,4.11c-1.61,2.07-4.31,5.4-7.45,4.27
		c-1.34-0.48-2.13-1.89-1.01-4.6c0,0-1.35,1.12-3.41,1.15c-2.36,2.67-6.33,4.82-8.36,0.91c-0.25-0.61-0.4-1.22-0.47-1.82
		c-1.77,2.24-4.57,4.31-7.17,3.17c-1.5-0.7-2.76-2.23-2.89-4.51C78.56,33,72.73,32.2,72.24,27.5c-0.68,1.5-2.2,4.21-4.19,4.07
		c-1.38-0.09-2.1-1.06-2.15-2.71c-0.05-1.65,0.56-4.01,1.84-6.88c0,0-2.44,3.08-4.02,5.38c-1.57,2.3-1.31,2.6-1.26,3.17
		c0.07,0.58,0.56,1.65-0.48,1.4c-1.04-0.25-2.36-1.22-2.6-2.29c0,0-1.76,2.89-3.47,2.72c-0.87-0.09-1.94-0.21-2.39-1.35
		c-0.46-1.13-0.33-3.28,1.21-7.42c-0.21-0.26-0.43-0.52-0.64-0.78c0,0-0.62,1.49-1.52,3.33c-0.89,1.84-2.08,4.04-3.24,5.47
		c-2.13,2.6-4.63,1.1-4.36-0.74c-1.26,2.51-4.73,4.04-6.27,1.52c-0.34-0.55-0.54-1.24-0.61-2c-0.01,0.01-0.01,0.01-0.01,0.01
		c-0.06-0.5-0.06-1-0.03-1.45c-2.18,3.78-5.58,7.27-9.06,6.09c-1.38-0.51-2.68-1.59-3.52-3.27c-0.84-1.68-1.24-3.95-0.84-6.87
		c1.03-5.16,3.1-8.61,5.16-10.8c2.05-2.19,4.11-3.11,5.11-3.26c1-0.14,2.05-0.12,2.73,0.86c0.68,0.98,0.99,2.93,0.47,6.64
		c-0.64,0.01-1.28,0.02-1.94,0.03c0.07-1.21,0.15-2.43,0.22-3.64c0.3-2.86-1.93-0.73-2.68,0.18c-0.7,0.86-1.5,2.08-2.21,3.68
		c-0.71,1.6-1.34,3.58-1.73,5.99c-1.22,6.44,2.31,12.94,9.46-0.4c0.22-0.52,0.47-0.98,0.72-1.36c3.01-4.59,8.87-6.32,8.97-0.52
		c-0.38-0.07-0.75-0.14-1.13-0.21c0,0,0.13-1.37-1.32-1.24c-1.46,0.14-3.44,3.6-4.56,6.69c-1.11,3.09-1.04,6.08,1.27,3.88
		c1.15-1.1,2.01-3.21,2.57-5.04c0.56-1.83,0.85-3.39,0.85-3.39c0.93,0.47,1.86,0.93,2.79,1.41c-0.45,1.88-0.89,3.75-1.34,5.61
		c0,0-0.31,0.95,0.08,1.02c1.07-0.87,2.29-3.33,3.24-5.57c0.95-2.25,1.64-4.28,1.64-4.28s-0.49-1.72,0.29-3.93
		c0,0,0.4-1.62,1.74-1.55c1.35,0.07,2.97,0.14,2.32,1.67c-0.65,1.53-2.04,3.88-1.41,4.8c0.63,0.92,2.24,1.48,1.75,2.7
		c-0.48,1.21-2.14,7.35-0.32,5.31c0.91-1.02,2.21-3.61,3.26-5.93c1.05-2.33,1.9-4.4,1.9-4.4s0.17-0.54,0.27-1.06
		c0.1-0.53,0.22-1.29,1.23-0.93c1,0.36,2.2,1.65,1.79,2.57c-0.41,0.91-0.31,1.4,0.38,0.65c0.7-0.75,2.6-3.32,2.6-3.32
		s0.77-1.3,1.78-0.44c1.01,0.87,2.41,1.45,1.14,3.81c-0.63,1.18-1.24,2.53-1.76,3.9c-0.52,1.37-0.99,2.77-1.35,4.05
		c0,0-0.21,1.74,1.21,0.24c1.05-1.09,2.08-3.09,2.55-4.08c0.7-3.49,2.42-5.58,3.95-6.79c1.53-1.2,2.91-1.52,2.91-1.52
		c2.99-0.68,4.83,0.55,2.74,4.65c-2.1,4.1-5.97,5.17-5.97,5.17s-0.87,3.48,2.07,2.64c2.94-0.84,5.69-5.57,5.87-5.89
		c2.18-5.25,6.36-6.4,7.71-6.32C93.1,17.3,94.72,17.8,93.6,22.21z"/>
	<path class="st2" d="M102.67,47.48l0.9,0.16l-0.8-5.58l-0.95-0.17l-2.33,5.04l0.87,0.15l0.52-1.22l1.63,0.28L102.67,47.48z
		 M101.17,45.15l1-2.37l0.01,0l0.26,2.59L101.17,45.15z M98.05,46.77l0.87,0.13l0.64-5.33l-0.87-0.13L98.05,46.77z M94.21,46.22
		l1.46,0.19c0.85,0.11,1.54-0.34,1.64-1.31c0.09-0.9-0.41-1.26-0.77-1.4l0-0.02c0.33-0.09,0.83-0.28,0.92-1.13
		c0.09-0.9-0.32-1.38-1.3-1.5l-1.4-0.18L94.21,46.22z M95.31,43.94L95.76,44c0.54,0.07,0.72,0.45,0.68,0.92
		c-0.05,0.5-0.35,0.79-0.82,0.72l-0.49-0.06L95.31,43.94z M95.54,41.7l0.43,0.06c0.42,0.05,0.68,0.36,0.63,0.81
		c-0.05,0.44-0.34,0.76-0.77,0.71l-0.45-0.06L95.54,41.7z M92.45,46l0.8,0.09l0.47-5.36l-1.27-0.14l-1.36,3.89l-0.01,0l-0.64-4.1
		l-1.31-0.14l-0.47,5.36l0.8,0.09l0.39-4.47l0.01,0l0.76,4.59l0.62,0.07l1.59-4.33l0.01,0L92.45,46z M84.19,42.5
		c-0.14,1.93,0.72,2.84,1.71,2.93c1,0.09,1.97-0.66,2.11-2.59c0.14-1.93-0.72-2.84-1.72-2.93C85.3,39.82,84.33,40.57,84.19,42.5z
		 M85.1,42.58c0.1-1.48,0.59-1.97,1.15-1.92c0.56,0.05,0.97,0.62,0.86,2.09c-0.1,1.48-0.59,1.97-1.15,1.92
		C85.4,44.62,84.99,44.05,85.1,42.58z M81.09,45.03l2.46,0.17l0.04-0.78l-1.58-0.11l0.25-4.59l-0.88-0.06L81.09,45.03z M76.58,42.09
		c-0.08,1.93,0.81,2.81,1.81,2.86c1,0.05,1.95-0.74,2.02-2.67c0.08-1.93-0.81-2.81-1.81-2.86C77.6,39.37,76.65,40.16,76.58,42.09z
		 M77.49,42.14c0.06-1.48,0.53-1.99,1.08-1.96c0.56,0.03,0.98,0.58,0.93,2.06c-0.06,1.48-0.53,1.99-1.08,1.96
		C77.86,44.17,77.43,43.62,77.49,42.14z M75.85,43.78c-0.2,0.16-0.48,0.27-0.91,0.27c-0.73-0.01-1.35-0.57-1.34-1.96
		c0.01-1.39,0.64-1.94,1.37-1.94c0.45,0,0.73,0.2,0.91,0.3l0.06-0.89c-0.18-0.08-0.58-0.23-1.07-0.23
		c-1.43-0.01-2.19,1.17-2.21,2.75c-0.01,1.57,0.73,2.77,2.19,2.79c0.43,0,0.86-0.08,1.04-0.18L75.85,43.78z M67.6,44.76l2.6-0.03
		l-0.01-0.79l-1.72,0.02l-0.01-1.59l1.56-0.02l-0.01-0.79l-1.56,0.01l-0.01-1.43l1.65-0.02l-0.01-0.79l-2.53,0.02L67.6,44.76z
		 M63.99,40.26l0.3-0.01c0.99-0.03,1.46,0.71,1.49,1.89c0.03,1.18-0.4,1.95-1.39,1.98l-0.3,0.01L63.99,40.26z M63.21,44.91
		l1.25-0.04c1.34-0.04,2.28-0.95,2.24-2.76c-0.04-1.78-0.86-2.67-2.36-2.62l-1.25,0.04L63.21,44.91z M57.89,44.96
		c0.25,0.15,0.63,0.2,1.11,0.16c0.92-0.06,1.58-0.63,1.52-1.73c-0.04-0.75-0.33-1.07-0.91-1.39l-0.53-0.29
		c-0.28-0.15-0.53-0.29-0.55-0.69c-0.02-0.37,0.19-0.65,0.63-0.68c0.41-0.03,0.7,0.09,0.91,0.17l0-0.83
		c-0.14-0.04-0.51-0.16-1.02-0.12c-0.81,0.06-1.49,0.6-1.43,1.57c0.04,0.69,0.37,1.09,0.86,1.35l0.46,0.25
		c0.44,0.23,0.65,0.39,0.67,0.77c0.03,0.54-0.3,0.8-0.69,0.83c-0.47,0.03-0.86-0.15-1.04-0.26V44.96z M54.56,45.42l2.59-0.23
		L57.1,44.4l-1.71,0.15l-0.11-1.58l1.55-0.14l-0.06-0.78l-1.55,0.14l-0.1-1.43l1.64-0.15l-0.06-0.78l-2.52,0.22L54.56,45.42z
		 M50.09,45.87l0.8-0.09l-0.36-4.17l0.01,0l1.95,4l1.05-0.11l-0.47-5.36l-0.8,0.09l0.37,4.2l-0.01,0l-1.96-4.03l-1.04,0.11
		L50.09,45.87z M46.85,43.19l-0.16-1.58l0.36-0.05c0.49-0.06,0.8,0.05,0.86,0.66c0.06,0.54-0.23,0.85-0.7,0.91L46.85,43.19z
		 M46.29,46.32l0.88-0.11l-0.24-2.3l0.2-0.03c0.32-0.04,0.56,0.07,0.72,0.47l0.65,1.68l0.93-0.12l-0.83-1.96
		c-0.2-0.48-0.41-0.54-0.59-0.55l0-0.02c0.52-0.16,0.87-0.68,0.79-1.38c-0.1-0.98-0.72-1.33-1.57-1.22l-1.49,0.19L46.29,46.32z
		 M44.84,46.51l0.9-0.14l-2.18-5.1l-0.96,0.14L41.65,47l0.87-0.13l0.19-1.33l1.64-0.25L44.84,46.51z M42.81,44.75l0.35-2.59l0.01,0
		l0.9,2.4L42.81,44.75z M41.19,46.09c-0.18,0.19-0.44,0.36-0.86,0.43c-0.72,0.13-1.42-0.32-1.61-1.69
		c-0.19-1.38,0.35-2.03,1.07-2.16c0.44-0.08,0.75,0.07,0.94,0.13l-0.07-0.88c-0.19-0.05-0.6-0.12-1.09-0.04
		c-1.42,0.25-2,1.56-1.78,3.11c0.22,1.55,1.12,2.61,2.57,2.36c0.43-0.07,0.84-0.23,1-0.37L41.19,46.09z"/>
	<path class="st3" d="M105.14,62.84l0.96,2.86h-1.92L105.14,62.84z M106.96,68.28h1.56l-2.64-7.15h-1.5l-2.64,7.15h1.58l0.46-1.38
		h2.72L106.96,68.28z M96.53,68.28h4.94v-1.35h-3.42v-5.8h-1.52V68.28z M90.82,68.28h4.94v-1.35h-3.42v-5.8h-1.52V68.28z
		 M88.28,68.28h1.51v-7.15h-1.51V68.28z M84.3,68.44c0.95,0,1.68-0.26,2.2-0.78c0.52-0.52,0.78-1.3,0.78-2.33v-4.2h-1.52v4.15
		c0,0.32-0.03,0.6-0.08,0.82c-0.05,0.22-0.15,0.42-0.29,0.58c-0.26,0.3-0.63,0.45-1.1,0.45c-0.47,0-0.84-0.15-1.1-0.45
		c-0.14-0.16-0.23-0.35-0.28-0.58c-0.05-0.22-0.08-0.5-0.08-0.82v-4.15h-1.52v4.2c0,1.03,0.26,1.81,0.78,2.33
		C82.62,68.18,83.35,68.44,84.3,68.44z M77.06,67.13c-0.25,0-0.48-0.05-0.71-0.14c-0.23-0.09-0.44-0.24-0.63-0.42
		c-0.19-0.19-0.34-0.44-0.46-0.76c-0.11-0.32-0.17-0.69-0.17-1.1s0.06-0.78,0.17-1.1c0.11-0.32,0.27-0.57,0.46-0.76
		c0.19-0.19,0.4-0.33,0.63-0.42c0.23-0.09,0.46-0.14,0.71-0.14c0.24,0,0.48,0.05,0.7,0.14c0.22,0.09,0.43,0.24,0.62,0.42
		c0.19,0.19,0.34,0.44,0.45,0.76c0.11,0.32,0.17,0.69,0.17,1.1c0,0.61-0.12,1.12-0.37,1.53l-0.92-1.04l-0.89,0.79l0.9,1.02
		C77.52,67.09,77.29,67.13,77.06,67.13z M77.06,68.44c0.59,0,1.14-0.12,1.63-0.36l0.87,0.99l0.89-0.79l-0.81-0.92
		c0.6-0.68,0.91-1.57,0.91-2.65c0-1.11-0.32-2.01-0.95-2.7c-0.64-0.69-1.48-1.03-2.52-1.03c-1.05,0-1.89,0.34-2.53,1.03
		c-0.64,0.69-0.96,1.59-0.96,2.7s0.32,2.01,0.96,2.7C75.17,68.09,76.01,68.44,77.06,68.44z M71.38,68.28h1.38v-7.15h-1.51v4.59
		l-3-4.59h-1.39v7.15h1.52v-4.59L71.38,68.28z M63.1,62.84l0.96,2.86h-1.92L63.1,62.84z M64.92,68.28h1.56l-2.64-7.15h-1.5
		l-2.64,7.15h1.58l0.46-1.38h2.72L64.92,68.28z M56.6,62.46c0.76,0,1.13,0.37,1.13,1.1c0,0.72-0.38,1.09-1.13,1.09h-1.65v-2.18H56.6
		z M56.74,61.13h-3.31v7.15h1.52V65.9h1.77l1.18,2.37h1.65l-1.42-2.68c0.36-0.19,0.64-0.46,0.83-0.82c0.19-0.35,0.29-0.77,0.29-1.25
		c0-0.76-0.22-1.35-0.67-1.77C58.13,61.34,57.52,61.13,56.74,61.13z M49.93,62.46c0.76,0,1.13,0.37,1.13,1.1
		c0,0.72-0.38,1.09-1.13,1.09h-1.65v-2.18H49.93z M50.07,61.13h-3.31v7.15h1.52V65.9h1.77l1.18,2.37h1.65l-1.42-2.68
		c0.36-0.19,0.64-0.46,0.83-0.82c0.19-0.35,0.29-0.77,0.29-1.25c0-0.76-0.22-1.35-0.67-1.77C51.46,61.34,50.85,61.13,50.07,61.13z
		 M43,62.84l0.96,2.86h-1.92L43,62.84z M44.83,68.28h1.56l-2.64-7.15h-1.5l-2.64,7.15h1.58l0.46-1.38h2.72L44.83,68.28z
		 M36.73,62.41c0.15,0,0.28,0.01,0.4,0.04c0.12,0.02,0.22,0.07,0.32,0.13c0.1,0.06,0.18,0.15,0.23,0.26
		c0.06,0.12,0.08,0.26,0.08,0.43c0,0.58-0.35,0.87-1.04,0.87h-1.62v-1.72H36.73z M36.8,65.15c0.36,0,0.64,0.07,0.86,0.22
		c0.21,0.15,0.32,0.39,0.32,0.71c0,0.61-0.39,0.91-1.17,0.91h-1.69v-1.85H36.8z M33.61,68.28h3.41c0.77,0,1.37-0.19,1.82-0.56
		c0.44-0.38,0.66-0.87,0.66-1.49c0-0.4-0.1-0.75-0.29-1.04c-0.2-0.29-0.48-0.52-0.85-0.68c0.56-0.34,0.84-0.84,0.84-1.49
		c0-0.59-0.22-1.05-0.65-1.38c-0.43-0.33-1.03-0.5-1.78-0.5h-3.16V68.28z M87.45,58.07c-0.25,0-0.48-0.05-0.71-0.14
		c-0.23-0.09-0.44-0.23-0.63-0.42c-0.19-0.19-0.34-0.44-0.46-0.76c-0.11-0.32-0.17-0.69-0.17-1.1c0-0.41,0.06-0.78,0.17-1.1
		c0.11-0.32,0.27-0.57,0.46-0.76c0.19-0.19,0.4-0.33,0.63-0.42c0.23-0.09,0.46-0.14,0.71-0.14c0.24,0,0.48,0.05,0.7,0.14
		c0.22,0.09,0.43,0.24,0.62,0.42c0.19,0.19,0.34,0.44,0.45,0.76c0.11,0.32,0.17,0.69,0.17,1.1c0,0.41-0.06,0.78-0.17,1.1
		c-0.11,0.32-0.27,0.58-0.45,0.76c-0.19,0.19-0.4,0.33-0.62,0.42C87.93,58.02,87.69,58.07,87.45,58.07z M87.45,59.38
		c1.05,0,1.89-0.34,2.52-1.03c0.64-0.69,0.95-1.59,0.95-2.7c0-1.11-0.32-2.01-0.95-2.7c-0.64-0.69-1.48-1.03-2.52-1.03
		c-1.05,0-1.89,0.34-2.53,1.03c-0.64,0.69-0.96,1.59-0.96,2.7c0,1.11,0.32,2.01,0.96,2.7C85.56,59.03,86.4,59.38,87.45,59.38z
		 M80.72,53.4c0.76,0,1.13,0.37,1.13,1.1c0,0.72-0.38,1.09-1.13,1.09h-1.65V53.4H80.72z M80.86,52.07h-3.31v7.15h1.52v-2.37h1.77
		l1.18,2.37h1.65l-1.42-2.68c0.36-0.19,0.64-0.46,0.83-0.82c0.19-0.35,0.29-0.77,0.29-1.25c0-0.76-0.22-1.35-0.67-1.77
		C82.25,52.28,81.64,52.07,80.86,52.07z M70.91,53.42h2.19v5.8h1.52v-5.8h2.19v-1.35h-5.89V53.42z M68.77,59.22h1.38v-7.15h-1.51
		v4.58l-3-4.58h-1.39v7.15h1.52v-4.59L68.77,59.22z M58.12,59.22h5.32v-1.33h-3.8v-1.62h3.21v-1.25h-3.21V53.4h3.76v-1.33h-5.28
		V59.22z M54.01,58.07c-0.24,0-0.46-0.05-0.67-0.14c-0.21-0.09-0.41-0.23-0.6-0.42c-0.18-0.19-0.33-0.44-0.44-0.76
		c-0.11-0.32-0.16-0.69-0.16-1.11c0-0.42,0.06-0.79,0.16-1.11c0.11-0.32,0.25-0.58,0.44-0.76c0.18-0.19,0.38-0.32,0.6-0.42
		c0.21-0.09,0.44-0.14,0.67-0.14c0.19,0,0.37,0.03,0.55,0.1c0.18,0.06,0.35,0.16,0.52,0.28c0.16,0.13,0.3,0.3,0.43,0.51
		c0.12,0.22,0.21,0.47,0.26,0.75h1.53c-0.1-0.89-0.45-1.61-1.05-2.14c-0.6-0.54-1.34-0.81-2.22-0.81c-0.67,0-1.26,0.16-1.78,0.47
		c-0.52,0.32-0.92,0.75-1.21,1.32c-0.29,0.57-0.43,1.21-0.43,1.94c0,0.73,0.14,1.38,0.43,1.94c0.29,0.57,0.69,1.01,1.21,1.32
		c0.52,0.32,1.11,0.47,1.78,0.47c0.88,0,1.62-0.27,2.22-0.81c0.6-0.54,0.95-1.25,1.05-2.14h-1.53c-0.05,0.28-0.14,0.53-0.26,0.75
		c-0.12,0.22-0.26,0.39-0.42,0.52c-0.16,0.13-0.34,0.22-0.52,0.28C54.39,58.04,54.2,58.07,54.01,58.07z"/>
</g>
</svg>
